<svg class="main-svg" xmlns="http://www.w3.org/2000/svg" xmlns:xlink="http://www.w3.org/1999/xlink" width="1212" height="546" style="" viewBox="0 0 1212 546"><rect x="0" y="0" width="1212" height="546" style="fill: rgb(255, 255, 255); fill-opacity: 1;"/><defs id="defs-1651dc"><g class="clips"><clipPath id="clip1651dcxyplot" class="plotclip"><rect width="1092" height="426"/></clipPath><clipPath class="axesclip" id="clip1651dcx"><rect x="60" y="0" width="1092" height="546"/></clipPath><clipPath class="axesclip" id="clip1651dcy"><rect x="0" y="60" width="1212" height="426"/></clipPath><clipPath class="axesclip" id="clip1651dcxy"><rect x="60" y="60" width="1092" height="426"/></clipPath></g><g class="gradients"/></defs><g class="bglayer"/><g class="layer-below"><g class="imagelayer"/><g class="shapelayer"/></g><g class="cartesianlayer"><g class="subplot xy"><g class="layer-subplot"><g class="shapelayer"/><g class="imagelayer"/></g><g class="gridlayer"><g class="x"><path class="xgrid crisp" transform="translate(168.22,0)" d="M0,60v426" style="stroke: rgb(238, 238, 238); stroke-opacity: 1; stroke-width: 1px;"/><path class="xgrid crisp" transform="translate(277.53,0)" d="M0,60v426" style="stroke: rgb(238, 238, 238); stroke-opacity: 1; stroke-width: 1px;"/><path class="xgrid crisp" transform="translate(386.83,0)" d="M0,60v426" style="stroke: rgb(238, 238, 238); stroke-opacity: 1; stroke-width: 1px;"/><path class="xgrid crisp" transform="translate(496.14,0)" d="M0,60v426" style="stroke: rgb(238, 238, 238); stroke-opacity: 1; stroke-width: 1px;"/><path class="xgrid crisp" transform="translate(605.45,0)" d="M0,60v426" style="stroke: rgb(238, 238, 238); stroke-opacity: 1; stroke-width: 1px;"/><path class="xgrid crisp" transform="translate(714.76,0)" d="M0,60v426" style="stroke: rgb(238, 238, 238); stroke-opacity: 1; stroke-width: 1px;"/><path class="xgrid crisp" transform="translate(824.07,0)" d="M0,60v426" style="stroke: rgb(238, 238, 238); stroke-opacity: 1; stroke-width: 1px;"/><path class="xgrid crisp" transform="translate(933.38,0)" d="M0,60v426" style="stroke: rgb(238, 238, 238); stroke-opacity: 1; stroke-width: 1px;"/><path class="xgrid crisp" transform="translate(1042.69,0)" d="M0,60v426" style="stroke: rgb(238, 238, 238); stroke-opacity: 1; stroke-width: 1px;"/></g><g class="y"><path class="ygrid crisp" transform="translate(0,442.66)" d="M60,0h1092" style="stroke: rgb(238, 238, 238); stroke-opacity: 1; stroke-width: 1px;"/><path class="ygrid crisp" transform="translate(0,390.91)" d="M60,0h1092" style="stroke: rgb(238, 238, 238); stroke-opacity: 1; stroke-width: 1px;"/><path class="ygrid crisp" transform="translate(0,339.16)" d="M60,0h1092" style="stroke: rgb(238, 238, 238); stroke-opacity: 1; stroke-width: 1px;"/><path class="ygrid crisp" transform="translate(0,287.4)" d="M60,0h1092" style="stroke: rgb(238, 238, 238); stroke-opacity: 1; stroke-width: 1px;"/><path class="ygrid crisp" transform="translate(0,235.65)" d="M60,0h1092" style="stroke: rgb(238, 238, 238); stroke-opacity: 1; stroke-width: 1px;"/><path class="ygrid crisp" transform="translate(0,183.89)" d="M60,0h1092" style="stroke: rgb(238, 238, 238); stroke-opacity: 1; stroke-width: 1px;"/><path class="ygrid crisp" transform="translate(0,132.14)" d="M60,0h1092" style="stroke: rgb(238, 238, 238); stroke-opacity: 1; stroke-width: 1px;"/><path class="ygrid crisp" transform="translate(0,80.39)" d="M60,0h1092" style="stroke: rgb(238, 238, 238); stroke-opacity: 1; stroke-width: 1px;"/></g></g><g class="zerolinelayer"/><path class="xlines-below"/><path class="ylines-below"/><g class="overlines-below"/><g class="xaxislayer-below"/><g class="yaxislayer-below"/><g class="overaxes-below"/><g class="plot" transform="translate(60,60)" clip-path="url('#clip1651dcxyplot')"><g class="scatterlayer mlayer"><g class="trace scatter tracefa5a89" style="stroke-miterlimit: 2; opacity: 1;"><g class="fills"/><g class="errorbars"/><g class="lines"><path class="js-line" style="vector-effect: non-scaling-stroke; fill: none; stroke: rgb(31, 119, 180); stroke-opacity: 1; stroke-width: 2px; opacity: 1;" d="M0,21.3L1.09,111.04L2.19,136.24L3.28,135.25L4.37,148.62L5.47,134.59L6.56,190.72L7.65,144.68L8.74,193.77L9.84,241.04L10.93,147.24L12.02,246.5L13.12,259.97L14.21,256.16L15.3,243.61L16.4,150.86L17.49,224.62L18.58,204.59L19.68,169.58L21.86,293.1L22.95,277.23L24.05,228.9L25.14,239.97L27.33,273.89L28.42,252.17L29.51,195.25L30.61,221.49L32.79,281.03L33.89,262.51L34.98,277.04L36.07,274.14L37.17,293.65L38.26,263.99L40.44,210.02L41.54,325.7L42.63,238.71L43.72,270.31L44.82,253.9L45.91,316.49L48.1,210.1L49.19,256.44L50.28,260.43L51.38,267.61L52.47,300.08L53.56,280.41L54.65,241.54L55.75,243.66L56.84,242.88L57.93,245.67L59.03,314L60.12,246.69L61.21,220.8L62.31,246.6L63.4,289.55L64.49,217.57L65.59,290.09L66.68,198.55L68.86,330.41L69.96,260.06L71.05,388.57L72.14,274.54L73.24,253.36L74.33,207.79L75.42,249.52L76.52,245.36L77.61,226.28L78.7,185.89L79.8,264.7L80.89,237.3L81.98,176.66L83.08,312.83L85.26,254.49L86.35,266.42L87.45,219.64L88.54,211.28L90.73,310.89L91.82,235.72L92.91,278.83L94.01,209.53L95.1,215.63L96.19,286.38L97.29,268.92L98.38,308.36L99.47,307.17L100.56,250.07L101.66,239.49L102.75,283.34L103.84,302.26L104.94,226.07L106.03,301.36L107.12,271.84L108.22,293.07L109.31,295.88L110.4,221.95L111.5,248.88L112.59,198.89L113.68,315.95L114.77,317.74L115.87,223.11L116.96,300.6L118.05,259.06L120.24,314.26L121.33,310.59L122.43,313.52L123.52,206.29L124.61,275.11L125.71,276.54L126.8,280.55L127.89,325.16L128.98,323.87L130.08,283.76L131.17,244.7L132.26,291.55L134.45,230.08L135.54,289.55L136.64,245.57L137.73,267.96L139.92,363.47L141.01,308.94L142.1,266.17L143.2,319.86L145.38,253.53L146.47,307.51L148.66,246.82L149.75,301.32L151.94,204.58L153.03,342.23L156.31,199.42L157.41,284.42L158.5,303.55L159.59,241.9L160.68,334.7L161.78,215.8L162.87,251.78L163.96,206.55L165.06,309.11L166.15,328.42L167.24,285.73L168.34,316.01L169.43,310.15L170.52,241.06L171.62,234.45L172.71,195.88L173.8,218.02L174.89,268.81L175.99,313.93L177.08,236.65L178.17,331.47L179.27,274.75L180.36,332.44L181.45,282.01L182.55,251.61L183.64,291.46L184.73,195.3L185.83,300.67L186.92,306.58L188.01,287.31L189.11,299.05L190.2,275.83L191.29,214.41L192.38,287.68L193.48,275.63L194.57,228.62L196.76,310.71L197.85,249.38L198.94,293.3L200.04,397.87L201.13,299.14L202.22,334.21L203.32,261.54L204.41,268.7L205.5,272.33L206.59,313.14L207.69,256.17L208.78,281.82L209.87,279.31L210.97,296.95L212.06,277.66L213.15,319.33L214.25,321.59L215.34,332.31L216.43,325.71L217.53,251.24L219.71,289.17L220.8,240.22L222.99,308.26L224.08,283.23L225.18,321.51L226.27,310.87L227.36,255.99L228.46,390.82L230.64,296.54L231.74,306.08L232.83,265.48L233.92,315.35L235.02,268.84L236.11,293.7L237.2,270.29L238.29,314.61L239.39,298.08L240.48,251.93L241.57,265.57L242.67,256.02L243.76,243.34L244.85,298.48L245.95,274.67L247.04,300.82L248.13,281.64L249.23,317.82L250.32,279.3L251.41,331.45L252.5,328.58L253.6,191.55L254.69,326.91L255.78,253L256.88,310.02L257.97,324.75L259.06,312.61L260.16,336.36L261.25,283.2L262.34,327.34L263.44,205.84L264.53,271.06L265.62,296.08L266.71,375.24L267.81,266.47L268.9,253.1L269.99,259.75L271.09,351.18L273.27,295.67L274.37,327.05L275.46,287.45L276.55,395.53L278.74,246.21L279.83,265.26L280.92,336.01L282.02,291.87L283.11,324.19L284.2,301.25L285.3,313.18L286.39,263.37L287.48,272.15L288.58,257.84L289.67,259.39L290.76,272.62L291.86,308.5L292.95,316.48L294.04,342.36L295.14,281.32L296.23,309.44L297.32,256.89L298.41,321.26L299.51,301.82L300.6,309.71L301.69,281.5L302.79,340.25L303.88,295.92L304.97,339.71L306.07,269.97L307.16,259.9L308.25,339.83L309.35,246.23L310.44,224.8L311.53,276.74L312.62,274.08L314.81,338.2L315.9,264.66L317,251.2L318.09,323.79L319.18,307.62L320.28,244.89L323.56,347.36L324.65,273.86L325.74,284.82L326.83,278.49L327.93,276.36L329.02,284.32L330.11,342.41L331.21,213.65L332.3,336.44L333.39,243.08L334.49,258.53L335.58,347.57L336.67,321.56L337.77,264.46L339.95,323.02L341.05,195.22L343.23,323.59L344.32,314.42L345.42,305.16L346.51,264.87L347.6,296.92L348.7,273.88L349.79,234.41L350.88,311.81L351.98,270.52L353.07,320.43L354.16,269.85L355.26,298.39L356.35,269.47L357.44,305.09L358.53,306.62L359.63,327.32L361.81,225.56L362.91,277.06L364,312.12L365.09,386.15L367.28,234.15L368.37,305.72L371.65,323.34L372.74,238.62L373.84,319.12L374.93,287.27L376.02,300.88L377.12,254.95L378.21,270.78L379.3,234.59L380.4,293.35L381.49,231.76L382.58,318.49L383.68,256.52L384.77,324.91L385.86,308.4L386.95,319.01L388.05,229.67L389.14,298.18L390.23,297.76L391.33,296.36L392.42,329.62L393.51,202.09L394.61,286.02L395.7,245.33L396.79,327.73L397.89,317.13L398.98,324.34L400.07,327.32L401.17,294.52L402.26,312.04L403.35,297.09L404.44,283.23L405.54,296.82L406.63,315.03L407.72,275.83L408.82,201.61L409.91,298.45L411,297.38L412.1,340.8L413.19,263.29L414.28,254.1L415.38,285.31L416.47,252.98L417.56,225.88L418.65,242.72L420.84,317.09L421.93,260.44L423.03,305.39L424.12,288.71L425.21,299.85L426.31,242.34L427.4,284.06L428.49,276.14L429.59,304.41L430.68,302.49L431.77,265.84L432.86,313.77L433.96,356.75L435.05,316.91L436.14,307.64L437.24,324.64L439.42,206.93L440.52,344.45L441.61,283.3L442.7,317.65L443.8,312.07L444.89,260.91L445.98,205.2L447.08,325.93L448.17,324L449.26,225.39L450.35,302.56L451.45,302.47L452.54,215.13L453.63,331.97L454.73,230.92L455.82,218.47L456.91,255.51L458.01,255.31L459.1,278.1L460.19,347.11L462.38,319.05L463.47,278.9L464.56,234.2L465.66,339.47L468.94,206.67L470.03,359.26L471.12,296.18L472.22,286.65L473.31,338.33L474.4,259.79L476.59,319.93L477.68,280.79L478.77,239.65L479.87,259L480.96,345.19L482.05,353.05L483.15,311.68L484.24,199.08L485.33,327.52L486.43,257.49L487.52,346.04L488.61,293.56L489.71,265.11L490.8,297.87L491.89,299.64L492.98,310.24L494.08,342.96L495.17,323.05L496.26,360.04L497.36,282.01L498.45,299.09L499.54,297.95L500.64,371.48L501.73,246.57L502.82,321.15L503.92,333.48L505.01,241.3L506.1,333.07L507.2,401.88L508.29,340.74L509.38,265.6L510.47,271.87L511.57,333.79L512.66,327.07L513.75,368.66L514.85,253.52L515.94,323.36L517.03,260.67L518.13,397.4L519.22,227.7L520.31,331.57L521.41,327.1L522.5,298.29L523.59,331.28L524.68,320.74L525.78,402.17L526.87,328.66L527.96,351.62L530.15,295.71L531.24,282.39L532.34,210.63L533.43,279.19L534.52,219.07L535.62,299.07L536.71,317.2L537.8,277.38L538.89,294.11L539.99,284.64L541.08,272.58L542.17,306.62L543.27,272L544.36,320.99L545.45,198.4L546.55,339.91L547.64,262.99L548.73,301.51L550.92,383.82L552.01,289.93L553.11,275.3L554.2,291.07L555.29,299.64L556.38,323.95L557.48,351.01L558.57,355.78L559.66,313.54L560.76,323.56L561.85,362.59L562.94,278.99L564.04,286.69L565.13,239.11L566.22,254.55L567.32,236.54L568.41,332.53L569.5,331.54L570.59,349.01L571.69,268.75L572.78,284.22L573.87,279.6L574.97,349.97L576.06,366.37L578.25,185.85L579.34,287.22L580.43,357.04L581.53,311.03L582.62,312.23L583.71,311.51L584.8,299.99L585.9,267.99L586.99,315.06L588.08,246.55L589.18,319.64L590.27,275.55L591.36,372.1L592.46,390.56L593.55,334.88L594.64,326.69L595.74,261.28L596.83,290.87L597.92,238.31L599.02,309.45L601.2,233.41L602.29,333.35L603.39,370.6L604.48,360.99L605.57,230.31L606.67,295.69L607.76,278.06L608.85,217.52L611.04,374.76L612.13,253.11L613.23,321.99L614.32,286.39L615.41,297.28L616.5,328.84L617.6,291.51L618.69,371.07L619.78,345.5L620.88,258.19L621.97,345.7L623.06,313.98L624.16,322.99L625.25,311.78L626.34,287.22L627.44,350.04L629.62,282.79L630.71,248.09L632.9,316.36L633.99,286.43L636.18,322.76L637.27,266.23L638.37,238.62L639.46,307.9L640.55,294.23L641.65,349.36L642.74,234.16L643.83,338.81L644.92,321.46L646.02,341.76L647.11,288.56L648.2,349.28L649.3,308.03L650.39,309.23L651.48,317.54L652.58,302.59L653.67,343.17L654.76,326.46L656.95,213.07L658.04,305.42L659.14,303.71L660.23,289.48L661.32,377.38L662.41,242.38L664.6,311.95L665.69,231.54L666.79,291.68L667.88,294.43L668.97,282.73L670.07,246.14L671.16,309.92L672.25,288.71L673.35,228.76L674.44,307.53L675.53,312.66L676.62,262.32L677.72,307.85L678.81,257.97L679.9,356.72L681,352.21L682.09,267.2L683.18,267.89L684.28,350.58L685.37,289.44L686.46,307.53L687.56,250.15L688.65,343.94L689.74,337.79L691.93,240.61L693.02,306.55L694.11,292.26L695.21,223.14L696.3,328.9L697.39,297.86L698.49,381.73L699.58,334.61L700.67,320.7L701.77,285.81L703.95,390.89L705.05,338.73L706.14,349.88L707.23,319.69L708.32,306.2L709.42,344.86L710.51,248.12L711.6,360.3L712.7,206.82L713.79,340.5L714.88,204.19L715.98,330.34L717.07,267.74L718.16,264.5L719.26,225.24L720.35,319.35L721.44,261.82L722.53,359.82L723.63,296.4L724.72,313.33L725.81,272.86L726.91,292.02L728,327.1L729.09,271.3L730.19,348.86L731.28,243.02L732.37,254.87L733.47,287.72L734.56,303.42L735.65,282.24L736.74,245.11L737.84,390.74L738.93,241.7L740.02,309.43L741.12,310.61L742.21,355.75L743.3,269.71L744.4,313.12L745.49,373.95L746.58,335.6L747.68,346.01L748.77,333.15L749.86,290.16L750.95,321.36L752.05,249.73L753.14,315.85L754.23,311.53L755.33,329.84L756.42,226.76L757.51,342.47L758.61,305.33L759.7,218.07L761.89,349.31L762.98,290.97L764.07,325.34L765.17,299.53L766.26,330.02L767.35,327.16L768.44,211.94L769.54,294.93L770.63,272.63L771.72,323.98L772.82,277.17L773.91,356.65L775,303.44L776.1,301.62L777.19,347.45L778.28,335.23L779.38,277.94L780.47,296.96L781.56,324.92L782.65,305.47L783.75,255.72L784.84,300.31L785.93,323.49L787.03,237.65L788.12,194.09L789.21,275.73L790.31,343.46L791.4,281.95L792.49,245.9L793.59,404.7L794.68,277.85L795.77,247.21L796.86,302.94L797.96,318.55L799.05,279.26L800.14,280.85L802.33,342.76L803.42,315.09L804.52,340.09L805.61,304.85L806.7,311.1L807.8,323.38L808.89,251.55L809.98,319.88L812.17,242.02L813.26,295.33L814.35,302.63L815.45,338.36L816.54,290.33L817.63,281.06L818.73,364.46L819.82,317.46L820.91,296.1L822.01,349.89L824.19,277.09L825.29,324.76L826.38,375.27L827.47,314.37L828.56,325.34L829.66,275.28L830.75,290.85L831.84,317.82L832.94,282.13L834.03,286.15L835.12,276.87L836.22,336.55L837.31,332.05L838.4,208L839.5,334.43L840.59,302.31L841.68,274.67L842.77,310.31L843.87,317.99L844.96,309.84L846.05,383.69L847.15,247.68L848.24,291.41L849.33,377.66L851.52,308.1L852.61,318.03L853.71,263.96L854.8,296.31L855.89,315.46L856.98,232.15L858.08,222.72L859.17,287.41L860.26,304.18L861.36,260.72L862.45,384.95L863.54,261.9L864.64,271.87L865.73,311.88L866.82,307.45L867.92,353.41L869.01,227.81L870.1,323.37L871.2,247.84L872.29,269.35L873.38,307.12L874.47,262.41L875.57,287.75L876.66,349.99L877.75,336.08L878.85,289.69L879.94,210.76L881.03,242.35L882.13,225.8L883.22,396.88L885.41,271.89L886.5,273L888.68,330.19L889.78,362.23L890.87,318.76L891.96,402.9L893.06,318.22L894.15,300.7L895.24,313.81L896.34,298.14L897.43,302.66L898.52,288.77L899.62,299.81L900.71,386.53L901.8,327.91L902.89,335.18L903.99,272.62L905.08,356.8L906.17,301.66L907.27,296.28L908.36,275.02L909.45,303.21L910.55,264.16L911.64,270.37L912.73,293.02L913.83,331.97L914.92,306.61L916.01,304.54L919.29,268.03L920.38,291.78L921.48,266.72L922.57,270.41L924.76,352.71L925.85,287.72L926.94,275.56L928.04,313.9L929.13,303.11L930.22,301.5L931.32,289.08L932.41,321.15L934.59,271.93L935.69,328.44L937.87,263.01L938.97,276.63L940.06,316.11L941.15,308.97L942.25,252.83L943.34,298.81L944.43,328.11L945.53,286.11L946.62,356.62L947.71,292.17L948.8,266.33L949.9,371.82L950.99,256.6L952.08,269.41L953.18,341.67L954.27,237.65L955.36,288.45L956.46,283.74L957.55,317.97L958.64,269.77L959.74,301.31L960.83,262.25L961.92,333.58L963.02,341.24L964.11,292.28L965.2,325.72L966.29,304.34L967.39,342.63L968.48,361.5L969.57,212.74L971.76,305.92L972.85,241.75L973.95,206.85L975.04,292.32L976.13,294.61L977.23,320.48L979.41,289.28L980.5,308L981.6,347.43L982.69,314.69L983.78,336.27L984.88,313.33L985.97,189.31L987.06,327.07L990.34,279.89L991.44,323.77L992.53,253.7L993.62,275.83L994.71,329.55L995.81,311.63L996.9,306.41L997.99,312.11L1000.18,258.15L1001.27,316.05L1002.37,264.75L1003.46,382.93L1004.55,317.3L1005.65,304.81L1007.83,379.89L1008.92,374.88L1010.02,338.43L1011.11,348.44L1012.2,235.72L1013.3,324.08L1014.39,275.72L1015.48,313.79L1016.58,305.13L1017.67,325.67L1018.76,309L1019.86,344.32L1020.95,365.45L1022.04,324.14L1023.14,309.53L1024.23,258.48L1025.32,266.72L1026.41,308.38L1027.51,326.51L1028.6,325.13L1029.69,324.17L1030.79,301.42L1031.88,286.96L1032.97,344.22L1034.07,333.13L1035.16,293.36L1036.25,323.65L1037.35,331.31L1038.44,297.29L1039.53,340.88L1040.62,313.38L1041.72,318.67L1042.81,282.09L1043.9,300.17L1045,305.33L1046.09,351.71L1047.18,238.34L1048.28,384.31L1049.37,295.09L1050.46,300.1L1051.56,302.34L1052.65,329.76L1053.74,206.74L1054.83,305.76L1055.93,311.78L1057.02,386.81L1058.11,253.17L1059.21,347.33L1060.3,256.86L1061.39,295.49L1062.49,352.07L1063.58,259.39L1064.67,318.72L1065.77,276.36L1066.86,314.2L1067.95,308.71L1069.05,231.69L1070.14,320.93L1071.23,266.71L1072.32,267.14L1073.42,271.77L1074.51,300.87L1075.6,281.55L1076.7,320.93L1077.79,276.64L1078.88,329.56L1079.98,313.18L1081.07,313.45L1083.26,374.38L1084.35,299.55L1085.44,281.96L1086.53,289.11L1087.63,334.3L1088.72,347.67L1089.81,332.24L1090.91,352.23L1092,269.16"/></g><g class="points"/><g class="text"/></g></g></g><g class="overplot"/><path class="xlines-above crisp" style="fill: none;" d="M0,0"/><path class="ylines-above crisp" style="fill: none;" d="M0,0"/><g class="overlines-above"/><g class="xaxislayer-above"><g class="xtick"><text text-anchor="middle" x="0" y="499" style="font-family: TOBESTRIPPEDOpen SansTOBESTRIPPED, verdana, arial, sans-serif; font-size: 12px; fill: rgb(68, 68, 68); fill-opacity: 1; white-space: pre;" transform="translate(168.22,0)">0.1M</text></g><g class="xtick"><text text-anchor="middle" x="0" y="499" style="font-family: TOBESTRIPPEDOpen SansTOBESTRIPPED, verdana, arial, sans-serif; font-size: 12px; fill: rgb(68, 68, 68); fill-opacity: 1; white-space: pre;" transform="translate(277.53,0)">0.2M</text></g><g class="xtick"><text text-anchor="middle" x="0" y="499" style="font-family: TOBESTRIPPEDOpen SansTOBESTRIPPED, verdana, arial, sans-serif; font-size: 12px; fill: rgb(68, 68, 68); fill-opacity: 1; white-space: pre;" transform="translate(386.83,0)">0.3M</text></g><g class="xtick"><text text-anchor="middle" x="0" y="499" style="font-family: TOBESTRIPPEDOpen SansTOBESTRIPPED, verdana, arial, sans-serif; font-size: 12px; fill: rgb(68, 68, 68); fill-opacity: 1; white-space: pre;" transform="translate(496.14,0)">0.4M</text></g><g class="xtick"><text text-anchor="middle" x="0" y="499" style="font-family: TOBESTRIPPEDOpen SansTOBESTRIPPED, verdana, arial, sans-serif; font-size: 12px; fill: rgb(68, 68, 68); fill-opacity: 1; white-space: pre;" transform="translate(605.45,0)">0.5M</text></g><g class="xtick"><text text-anchor="middle" x="0" y="499" style="font-family: TOBESTRIPPEDOpen SansTOBESTRIPPED, verdana, arial, sans-serif; font-size: 12px; fill: rgb(68, 68, 68); fill-opacity: 1; white-space: pre;" transform="translate(714.76,0)">0.6M</text></g><g class="xtick"><text text-anchor="middle" x="0" y="499" style="font-family: TOBESTRIPPEDOpen SansTOBESTRIPPED, verdana, arial, sans-serif; font-size: 12px; fill: rgb(68, 68, 68); fill-opacity: 1; white-space: pre;" transform="translate(824.07,0)">0.7M</text></g><g class="xtick"><text text-anchor="middle" x="0" y="499" style="font-family: TOBESTRIPPEDOpen SansTOBESTRIPPED, verdana, arial, sans-serif; font-size: 12px; fill: rgb(68, 68, 68); fill-opacity: 1; white-space: pre;" transform="translate(933.38,0)">0.8M</text></g><g class="xtick"><text text-anchor="middle" x="0" y="499" style="font-family: TOBESTRIPPEDOpen SansTOBESTRIPPED, verdana, arial, sans-serif; font-size: 12px; fill: rgb(68, 68, 68); fill-opacity: 1; white-space: pre;" transform="translate(1042.69,0)">0.9M</text></g><g class="xtick"><text text-anchor="middle" x="0" y="499" style="font-family: TOBESTRIPPEDOpen SansTOBESTRIPPED, verdana, arial, sans-serif; font-size: 12px; fill: rgb(68, 68, 68); fill-opacity: 1; white-space: pre;" transform="translate(1152,0)">1M</text></g></g><g class="yaxislayer-above"><g class="ytick"><text text-anchor="end" x="59" y="4.199999999999999" style="font-family: TOBESTRIPPEDOpen SansTOBESTRIPPED, verdana, arial, sans-serif; font-size: 12px; fill: rgb(68, 68, 68); fill-opacity: 1; white-space: pre;" transform="translate(0,442.66)">260</text></g><g class="ytick"><text text-anchor="end" x="59" y="4.199999999999999" style="font-family: TOBESTRIPPEDOpen SansTOBESTRIPPED, verdana, arial, sans-serif; font-size: 12px; fill: rgb(68, 68, 68); fill-opacity: 1; white-space: pre;" transform="translate(0,390.91)">280</text></g><g class="ytick"><text text-anchor="end" x="59" y="4.199999999999999" style="font-family: TOBESTRIPPEDOpen SansTOBESTRIPPED, verdana, arial, sans-serif; font-size: 12px; fill: rgb(68, 68, 68); fill-opacity: 1; white-space: pre;" transform="translate(0,339.16)">300</text></g><g class="ytick"><text text-anchor="end" x="59" y="4.199999999999999" style="font-family: TOBESTRIPPEDOpen SansTOBESTRIPPED, verdana, arial, sans-serif; font-size: 12px; fill: rgb(68, 68, 68); fill-opacity: 1; white-space: pre;" transform="translate(0,287.4)">320</text></g><g class="ytick"><text text-anchor="end" x="59" y="4.199999999999999" style="font-family: TOBESTRIPPEDOpen SansTOBESTRIPPED, verdana, arial, sans-serif; font-size: 12px; fill: rgb(68, 68, 68); fill-opacity: 1; white-space: pre;" transform="translate(0,235.65)">340</text></g><g class="ytick"><text text-anchor="end" x="59" y="4.199999999999999" style="font-family: TOBESTRIPPEDOpen SansTOBESTRIPPED, verdana, arial, sans-serif; font-size: 12px; fill: rgb(68, 68, 68); fill-opacity: 1; white-space: pre;" transform="translate(0,183.89)">360</text></g><g class="ytick"><text text-anchor="end" x="59" y="4.199999999999999" style="font-family: TOBESTRIPPEDOpen SansTOBESTRIPPED, verdana, arial, sans-serif; font-size: 12px; fill: rgb(68, 68, 68); fill-opacity: 1; white-space: pre;" transform="translate(0,132.14)">380</text></g><g class="ytick"><text text-anchor="end" x="59" y="4.199999999999999" style="font-family: TOBESTRIPPEDOpen SansTOBESTRIPPED, verdana, arial, sans-serif; font-size: 12px; fill: rgb(68, 68, 68); fill-opacity: 1; white-space: pre;" transform="translate(0,80.39)">400</text></g></g><g class="overaxes-above"/></g></g><g class="polarlayer"/><g class="ternarylayer"/><g class="geolayer"/><g class="funnelarealayer"/><g class="pielayer"/><g class="treemaplayer"/><g class="sunburstlayer"/><g class="glimages"/><defs id="topdefs-1651dc"><g class="clips"/></defs><g class="layer-above"><g class="imagelayer"/><g class="shapelayer"/></g><g class="infolayer"><g class="g-gtitle"><text class="gtitle" style="font-family: TOBESTRIPPEDOpen SansTOBESTRIPPED, verdana, arial, sans-serif; font-size: 17px; fill: rgb(68, 68, 68); opacity: 1; font-weight: normal; white-space: pre;" x="606" y="30" text-anchor="middle" dy="0em">reconsturction loss</text></g><g class="g-xtitle"><text class="xtitle" style="font-family: TOBESTRIPPEDOpen SansTOBESTRIPPED, verdana, arial, sans-serif; font-size: 14px; fill: rgb(68, 68, 68); opacity: 1; font-weight: normal; white-space: pre;" x="606" y="538" text-anchor="middle">iteration</text></g><g class="g-ytitle"/></g></svg>